<svg width="26" height="26" viewBox="0 0 26 26" fill="none" xmlns="http://www.w3.org/2000/svg">
<path d="M12.4583 23.5625C6.33746 23.5625 1.35413 18.5792 1.35413 12.4583C1.35413 6.3375 6.33746 1.35417 12.4583 1.35417C18.5791 1.35417 23.5625 6.3375 23.5625 12.4583C23.5625 18.5792 18.5791 23.5625 12.4583 23.5625ZM12.4583 2.97917C7.22579 2.97917 2.97913 7.23667 2.97913 12.4583C2.97913 17.68 7.22579 21.9375 12.4583 21.9375C17.6908 21.9375 21.9375 17.68 21.9375 12.4583C21.9375 7.23667 17.6908 2.97917 12.4583 2.97917Z" fill="white"/>
<path d="M23.8334 24.6458C23.6276 24.6458 23.4217 24.57 23.2592 24.4075L21.0926 22.2408C20.7784 21.9267 20.7784 21.4067 21.0926 21.0925C21.4067 20.7783 21.9267 20.7783 22.2409 21.0925L24.4076 23.2592C24.7217 23.5733 24.7217 24.0933 24.4076 24.4075C24.2451 24.57 24.0392 24.6458 23.8334 24.6458Z" fill="white"/>
</svg>
