<svg width="24" height="25" viewBox="0 0 24 25" fill="none" xmlns="http://www.w3.org/2000/svg">
<path d="M3.85467 24.1237C2.4696 24.1237 1.59157 23.6537 1.03507 23.0972C-0.0532016 22.009 -0.819936 19.6964 1.62867 14.7868L2.70457 12.6474C2.8406 12.363 2.8406 11.7693 2.70457 11.4849L1.62867 9.34548C-0.832303 4.4359 -0.0532016 2.11097 1.03507 1.03507C2.11097 -0.0532018 4.4359 -0.832303 9.33311 1.62867L19.919 6.92161C22.5531 8.23248 24 10.0627 24 12.0661C24 14.0696 22.5531 15.8998 19.9314 17.2107L9.34548 22.5036C6.94634 23.7032 5.16554 24.1237 3.85467 24.1237ZM3.85467 1.86363C3.18687 1.86363 2.66747 2.0244 2.34594 2.34593C1.44317 3.23634 1.8018 5.54891 3.2858 8.50454L4.3617 10.6563C4.75744 11.4602 4.75744 12.6721 4.3617 13.476L3.2858 15.6154C1.8018 18.5834 1.44317 20.8836 2.34594 21.774C3.23634 22.6768 5.54891 22.3181 8.51691 20.8341L19.1028 15.5412C21.0444 14.5766 22.145 13.3028 22.145 12.0538C22.145 10.8047 21.032 9.53098 19.0904 8.56638L8.50454 3.2858C6.62481 2.34594 5.00477 1.86363 3.85467 1.86363Z" fill="white"/>
<path d="M10.5697 12.9936H3.89173C3.3847 12.9936 2.96423 12.5732 2.96423 12.0661C2.96423 11.5591 3.3847 11.1386 3.89173 11.1386H10.5697C11.0768 11.1386 11.4972 11.5591 11.4972 12.0661C11.4972 12.5732 11.0768 12.9936 10.5697 12.9936Z" fill="white"/>
</svg>
