<svg width="65" height="64" viewBox="0 0 65 64" fill="none" xmlns="http://www.w3.org/2000/svg">
<path d="M40.5004 60.6667H24.5004C20.9804 60.6667 18.0471 60.3201 15.5671 59.5734C14.6604 59.3067 14.0737 58.4267 14.1271 57.4933C14.7937 49.52 22.8737 43.2533 32.5004 43.2533C42.1271 43.2533 50.1804 49.4933 50.8737 57.4933C50.9537 58.4533 50.3671 59.3067 49.4337 59.5734C46.9537 60.3201 44.0204 60.6667 40.5004 60.6667ZM18.4204 56.16C20.1804 56.5067 22.1804 56.6667 24.5004 56.6667H40.5004C42.8204 56.6667 44.8204 56.5067 46.5804 56.16C45.1671 51.04 39.3271 47.2533 32.5004 47.2533C25.6737 47.2533 19.8337 51.04 18.4204 56.16Z" fill="#4996F7"/>
<path d="M40.5 5.33334H24.5C11.1667 5.33334 5.83333 10.6667 5.83333 24V40C5.83333 50.08 8.87333 55.6 16.1267 57.6533C16.7133 50.72 23.8333 45.2533 32.5 45.2533C41.1667 45.2533 48.2867 50.72 48.8733 57.6533C56.1267 55.6 59.1667 50.08 59.1667 40V24C59.1667 10.6667 53.8333 5.33334 40.5 5.33334ZM32.5 37.7866C27.22 37.7866 22.9533 33.4934 22.9533 28.2134C22.9533 22.9334 27.22 18.6667 32.5 18.6667C37.78 18.6667 42.0467 22.9334 42.0467 28.2134C42.0467 33.4934 37.78 37.7866 32.5 37.7866Z" stroke="#4996F7" stroke-width="4" stroke-linecap="round" stroke-linejoin="round"/>
<path d="M32.4998 39.7866C26.1265 39.7866 20.9531 34.5867 20.9531 28.2134C20.9531 21.84 26.1265 16.6667 32.4998 16.6667C38.8731 16.6667 44.0465 21.84 44.0465 28.2134C44.0465 34.5867 38.8731 39.7866 32.4998 39.7866ZM32.4998 20.6667C28.3398 20.6667 24.9531 24.0534 24.9531 28.2134C24.9531 32.4 28.3398 35.7866 32.4998 35.7866C36.6598 35.7866 40.0465 32.4 40.0465 28.2134C40.0465 24.0534 36.6598 20.6667 32.4998 20.6667Z" fill="#4996F7"/>
</svg>
